<svg xmlns="http://www.w3.org/2000/svg" viewBox="0 0 58 58"><defs><style>.cls-1{fill:#937a5f;}.cls-2{fill:#ffd697;}.cls-3{fill:#170000;}.cls-4{fill:#e05f19;}</style></defs><title>кнопки</title><g id="Слой_7" data-name="Слой 7"><rect width="58" height="58"/></g><g id="Слой_8" data-name="Слой 8"><rect class="cls-1" x="5" y="5" width="50" height="50"/></g><g id="Слой_1" data-name="Слой 1"><rect class="cls-2" x="5" y="5" width="50" height="50"/><rect class="cls-3" x="8.4" y="8.4" width="3.5" height="3.5"/><rect class="cls-3" x="48.1" y="8.4" width="3.5" height="3.5"/><rect class="cls-3" x="8.4" y="48.1" width="3.5" height="3.5"/><rect class="cls-3" x="48.1" y="48.1" width="3.5" height="3.5"/><path d="M26.6,44.7V41H23V37.4H19.3V26.5H23V22.8h3.6V19.2H37.5v3.6h3.7v3.7h3.6V37.4H41.2V41H37.5v3.7ZM30.3,41h7.2V26.5H33.9V22.8H26.6V37.4h3.7Z"/><path class="cls-4" d="M24.7,42.7V39.1H21V35.5H17.4v-11H21V20.9h3.7V17.2H35.6v3.7h3.6v3.6h3.7v11H39.2v3.6H35.6v3.6Zm3.6-3.6h7.3V24.5H32V20.9H24.7V35.5h3.6Z"/></g></svg>