<svg xmlns="http://www.w3.org/2000/svg" viewBox="0 0 58 58"><defs><style>.cls-1{fill:#937a5f;}.cls-2{fill:#ffd697;}.cls-3{fill:#170000;}.cls-4{fill:#e05f19;}</style></defs><title>кнопки</title><g id="Слой_7" data-name="Слой 7"><rect width="58" height="58"/></g><g id="Слой_8" data-name="Слой 8"><rect class="cls-1" x="5" y="5.1" width="50" height="50"/></g><g id="Слой_1" data-name="Слой 1"><rect class="cls-2" x="5" y="5.1" width="50" height="50"/><rect class="cls-3" x="8.4" y="8.5" width="3.5" height="3.5"/><rect class="cls-3" x="48.1" y="8.5" width="3.5" height="3.5"/><rect class="cls-3" x="8.4" y="48.2" width="3.5" height="3.5"/><rect class="cls-3" x="48.1" y="48.2" width="3.5" height="3.5"/><path d="M19.3,44.8V37.5H23V33.9h3.6V30.2h7.3V26.6h3.6V22.9H26.6v3.7H19.3V22.9H23V19.3H41.2v3.6h3.6v7.3H41.2v3.7H37.5v3.6H30.3v3.6H44.8v3.7Z"/><path class="cls-4" d="M17.4,42.9V35.6H21V31.9h3.7V28.3H32V24.6h3.6V21H24.7v3.6H17.4V21H21V17.3H39.2V21h3.7v7.3H39.2v3.6H35.6v3.7H28.3v3.6H42.9v3.7Z"/></g></svg>