<svg xmlns="http://www.w3.org/2000/svg" viewBox="0 0 58 58"><defs><style>.cls-1{fill:#937a5f;}.cls-2{fill:#ffd697;}.cls-3{fill:#170000;}.cls-4{fill:#e05f19;}</style></defs><title>кнопки</title><g id="Слой_7" data-name="Слой 7"><rect width="58" height="58"/></g><g id="Слой_8" data-name="Слой 8"><rect class="cls-1" x="5" y="5.1" width="50" height="50"/></g><g id="Слой_1" data-name="Слой 1"><rect class="cls-2" x="3" y="3" width="50" height="50"/><rect class="cls-3" x="6.4" y="6.4" width="3.5" height="3.5"/><rect class="cls-3" x="46.1" y="6.4" width="3.5" height="3.5"/><rect class="cls-3" x="6.4" y="46.1" width="3.5" height="3.5"/><rect class="cls-3" x="46.1" y="46.1" width="3.5" height="3.5"/><path d="M17.3,42.7V35.4H21V31.7h3.6V28.1h7.3V24.5h3.6V20.8H24.6v3.7H17.3V20.8H21V17.2H39.2v3.6h3.6v7.3H39.2v3.6H35.5v3.7H28.2V39H42.8v3.7Z"/><path class="cls-4" d="M15.4,40.7V33.4H19V29.8h3.7V26.2h7.2V22.5h3.7V18.9H22.7v3.6H15.4V18.9H19V15.2H37.2v3.7h3.7v7.3H37.2v3.6H33.6v3.6H26.3v3.7H40.9v3.6Z"/></g></svg>