<svg xmlns="http://www.w3.org/2000/svg" viewBox="0 0 58 58"><defs><style>.cls-1{fill:#937a5f;}.cls-2{fill:#ffd697;}.cls-3{fill:#170000;}.cls-4{fill:#e05f19;}</style></defs><title>кнопки</title><g id="Слой_7" data-name="Слой 7"><rect width="58" height="58"/></g><g id="Слой_8" data-name="Слой 8"><rect class="cls-1" x="5" y="5.1" width="50" height="50"/></g><g id="Слой_1" data-name="Слой 1"><rect class="cls-2" x="5" y="5.1" width="50" height="50"/><rect class="cls-3" x="8.4" y="8.5" width="3.5" height="3.5"/><rect class="cls-3" x="48.1" y="8.5" width="3.5" height="3.5"/><rect class="cls-3" x="8.4" y="48.1" width="3.5" height="3.5"/><rect class="cls-3" x="48.1" y="48.1" width="3.5" height="3.5"/><path d="M33.9,44.7V37.5H19.3V30.2H23V26.5h3.6V22.9h3.7V19.2H41.2V33.8h3.6v3.7H41.2v7.2ZM26.6,33.8h7.3V26.5H30.3v3.7H26.6Z"/><path class="cls-4" d="M32,42.8V35.5H17.4V28.2H21V24.6h3.7V20.9h3.6V17.3H39.2V31.9h3.7v3.6H39.2v7.3ZM24.7,31.9H32V24.6H28.3v3.6H24.7Z"/></g></svg>