<svg xmlns="http://www.w3.org/2000/svg" viewBox="0 0 58 58"><defs><style>.cls-1{fill:#937a5f;}.cls-2{fill:#ffd697;}.cls-3{fill:#170000;}.cls-4{fill:#e05f19;}</style></defs><title>кнопки</title><g id="Слой_7" data-name="Слой 7"><rect width="58" height="58"/></g><g id="Слой_8" data-name="Слой 8"><rect class="cls-1" x="5" y="5.1" width="50" height="50"/></g><g id="Слой_1" data-name="Слой 1"><rect class="cls-2" x="3" y="3" width="50" height="50"/><rect class="cls-3" x="6.4" y="6.4" width="3.5" height="3.5"/><rect class="cls-3" x="46.1" y="6.4" width="3.5" height="3.5"/><rect class="cls-3" x="6.4" y="46.1" width="3.5" height="3.5"/><rect class="cls-3" x="46.1" y="46.1" width="3.5" height="3.5"/><path d="M31.9,42.7V35.4H17.3V28.1H21V24.5h3.6V20.8h3.6V17.2h11V31.7h3.6v3.7H39.2v7.3Zm-7.3-11h7.3V24.5H28.2v3.6H24.6Z"/><path class="cls-4" d="M29.9,40.7V33.4H15.4V26.2H19V22.5h3.7V18.9h3.6V15.2H37.2V29.8h3.7v3.6H37.2v7.3ZM22.7,29.8h7.2V22.5H26.3v3.7H22.7Z"/></g></svg>