<svg xmlns="http://www.w3.org/2000/svg" viewBox="0 0 58 58"><defs><style>.cls-1{fill:#937a5f;}.cls-2{fill:#ffd697;}.cls-3{fill:#170000;}.cls-4{fill:#e05f19;}</style></defs><title>кнопки</title><g id="Слой_7" data-name="Слой 7"><rect width="58" height="58"/></g><g id="Слой_8" data-name="Слой 8"><rect class="cls-1" x="5" y="5.1" width="50" height="50"/></g><g id="Слой_1" data-name="Слой 1"><rect class="cls-2" x="5" y="5.1" width="50" height="50"/><rect class="cls-3" x="8.4" y="8.5" width="3.5" height="3.5"/><rect class="cls-3" x="48.1" y="8.5" width="3.5" height="3.5"/><rect class="cls-3" x="8.4" y="48.1" width="3.5" height="3.5"/><rect class="cls-3" x="48.1" y="48.1" width="3.5" height="3.5"/><path d="M23,44.7V41.1H19.3V37.5h7.3v3.6H37.5V30.2H19.3v-11H41.2v3.7H26.6v3.6H41.2v3.7h3.6V41.1H41.2v3.6Z"/><path class="cls-4" d="M21,42.8V39.2H17.4V35.5h7.3v3.7H35.6v-11H17.4V17.3H39.2v3.6H24.7v3.7H39.2v3.6h3.7v11H39.2v3.6Z"/></g></svg>