<svg xmlns="http://www.w3.org/2000/svg" viewBox="0 0 58 58"><defs><style>.cls-1{fill:#937a5f;}.cls-2{fill:#ffd697;}.cls-3{fill:#170000;}.cls-4{fill:#e05f19;}</style></defs><title>кнопки</title><g id="Слой_7" data-name="Слой 7"><rect width="58" height="58"/></g><g id="Слой_8" data-name="Слой 8"><rect class="cls-1" x="5" y="5.1" width="50" height="50"/></g><g id="Слой_1" data-name="Слой 1"><rect class="cls-2" x="3" y="3" width="50" height="50"/><rect class="cls-3" x="6.4" y="6.4" width="3.5" height="3.5"/><rect class="cls-3" x="46.1" y="6.4" width="3.5" height="3.5"/><rect class="cls-3" x="6.4" y="46.1" width="3.5" height="3.5"/><rect class="cls-3" x="46.1" y="46.1" width="3.5" height="3.5"/><path d="M21,42.7V39H17.3V35.4h7.3V39H35.5V28.1H17.3V17.2H39.2v3.6H24.6v3.7H39.2v3.6h3.6V39H39.2v3.7Z"/><path class="cls-4" d="M19,40.7V37.1H15.4V33.4h7.3v3.7H33.6V26.2H15.4v-11H37.2v3.7H22.7v3.6H37.2v3.7h3.7V37.1H37.2v3.6Z"/></g></svg>