<svg xmlns="http://www.w3.org/2000/svg" viewBox="0 0 58 58"><defs><style>.cls-1{fill:#937a5f;}.cls-2{fill:#ffd697;}.cls-3{fill:#170000;}.cls-4{fill:#e05f19;}</style></defs><title>кнопки</title><g id="Слой_7" data-name="Слой 7"><rect width="58" height="58"/></g><g id="Слой_8" data-name="Слой 8"><rect class="cls-1" x="5" y="5" width="50" height="50"/></g><g id="Слой_1" data-name="Слой 1"><rect class="cls-2" x="5" y="5" width="50" height="50"/><rect class="cls-3" x="8.4" y="8.4" width="3.5" height="3.5"/><rect class="cls-3" x="48.1" y="8.4" width="3.5" height="3.5"/><rect class="cls-3" x="8.4" y="48" width="3.5" height="3.5"/><rect class="cls-3" x="48.1" y="48" width="3.5" height="3.5"/><path d="M23,44.6V41H19.3V26.4H23V22.8h3.6V19.1H41.2v3.7H30.3v3.6H26.6v3.7H41.2v3.6h3.6V41H41.2v3.6ZM26.6,41H37.5V33.7H26.6Z"/><path class="cls-4" d="M21,42.7V39H17.4V24.5H21V20.8h3.7V17.2H39.2v3.6H28.3v3.7H24.7v3.6H39.2v3.7h3.7V39H39.2v3.7ZM24.7,39H35.6V31.8H24.7Z"/></g></svg>