<svg xmlns="http://www.w3.org/2000/svg" viewBox="0 0 58 58"><defs><style>.cls-1{fill:#937a5f;}.cls-2{fill:#ffd697;}.cls-3{fill:#170000;}.cls-4{fill:#e05f19;}</style></defs><title>кнопки</title><g id="Слой_7" data-name="Слой 7"><rect width="58" height="58"/></g><g id="Слой_8" data-name="Слой 8"><rect class="cls-1" x="5" y="4.9" width="50" height="50"/></g><g id="Слой_1" data-name="Слой 1"><rect class="cls-2" x="3" y="3" width="50" height="50"/><rect class="cls-3" x="6.4" y="6.4" width="3.5" height="3.5"/><rect class="cls-3" x="46.1" y="6.4" width="3.5" height="3.5"/><rect class="cls-3" x="6.4" y="46.1" width="3.5" height="3.5"/><rect class="cls-3" x="46.1" y="46.1" width="3.5" height="3.5"/><path d="M21,42.7V39H17.3V24.5H21V20.8h3.6V17.2H39.2v3.6h-11v3.7H24.6v3.6H39.2v3.6h3.6V39H39.2v3.7ZM24.6,39H35.5V31.7H24.6Z"/><path class="cls-4" d="M19,40.7V37.1H15.4V22.5H19V18.9h3.7V15.2H37.2v3.7H26.3v3.6H22.7v3.7H37.2v3.6h3.7v7.3H37.2v3.6Zm3.7-3.6H33.6V29.8H22.7Z"/></g></svg>