<svg xmlns="http://www.w3.org/2000/svg" viewBox="0 0 58 58"><defs><style>.cls-1{fill:#937a5f;}.cls-2{fill:#ffd697;}.cls-3{fill:#170000;}.cls-4{fill:#e05f19;}</style></defs><title>кнопки</title><g id="Слой_7" data-name="Слой 7"><rect x="0.1" width="58" height="58"/></g><g id="Слой_8" data-name="Слой 8"><rect class="cls-1" x="5.1" y="5.1" width="50" height="50"/></g><g id="Слой_1" data-name="Слой 1"><rect class="cls-2" x="5.1" y="4.9" width="50" height="50"/><rect class="cls-3" x="8.6" y="8.4" width="3.5" height="3.5"/><rect class="cls-3" x="48.2" y="8.4" width="3.5" height="3.5"/><rect class="cls-3" x="8.6" y="48" width="3.5" height="3.5"/><rect class="cls-3" x="48.2" y="48" width="3.5" height="3.5"/><path d="M26.7,44.6V33.7h3.7V30H34V26.4h3.7V22.8h-11v3.6H19.4V19.1H45v7.3H41.3V30H37.7v3.7H34V44.6Z"/><path class="cls-4" d="M24.8,42.7v-11h3.6V28.1h3.7V24.5h3.6V20.8H24.8v3.7H17.5V17.2H43v7.3H39.4v3.6H35.7v3.6H32.1v11Z"/></g></svg>