<svg xmlns="http://www.w3.org/2000/svg" viewBox="0 0 58 58"><defs><style>.cls-1{fill:#937a5f;}.cls-2{fill:#ffd697;}.cls-3{fill:#170000;}.cls-4{fill:#e05f19;}</style></defs><title>кнопки</title><g id="Слой_7" data-name="Слой 7"><rect x="0.1" width="58" height="58"/></g><g id="Слой_8" data-name="Слой 8"><rect class="cls-1" x="5.1" y="5" width="50" height="50"/></g><g id="Слой_1" data-name="Слой 1"><rect class="cls-2" x="3.1" y="3" width="50" height="50"/><rect class="cls-3" x="6.6" y="6.4" width="3.5" height="3.5"/><rect class="cls-3" x="46.2" y="6.4" width="3.5" height="3.5"/><rect class="cls-3" x="6.6" y="46.1" width="3.5" height="3.5"/><rect class="cls-3" x="46.2" y="46.1" width="3.5" height="3.5"/><path d="M24.7,42.7V31.8h3.7V28.1H32V24.5h3.7V20.8h-11v3.7H17.4V17.2H42.9v7.3H39.3v3.6H35.7v3.7H32V42.7Z"/><path class="cls-4" d="M22.8,40.7V29.8h3.6V26.2h3.7V22.5h3.6V18.9H22.8v3.6H15.5V15.2H41v7.3H37.4v3.7H33.7v3.6H30.1V40.7Z"/></g></svg>