<svg xmlns="http://www.w3.org/2000/svg" viewBox="0 0 58 58"><defs><style>.cls-1{fill:#937a5f;}.cls-2{fill:#ffd697;}.cls-3{fill:#170000;}.cls-4{fill:#e05f19;}</style></defs><title>кнопки</title><g id="Слой_7" data-name="Слой 7"><rect width="58" height="58"/></g><g id="Слой_8" data-name="Слой 8"><rect class="cls-1" x="5" y="5" width="50" height="50"/></g><g id="Слой_1" data-name="Слой 1"><rect class="cls-2" x="5" y="5" width="50" height="50"/><rect class="cls-3" x="8.4" y="8.5" width="3.5" height="3.5"/><rect class="cls-3" x="48.1" y="8.5" width="3.5" height="3.5"/><rect class="cls-3" x="8.4" y="48.1" width="3.5" height="3.5"/><rect class="cls-3" x="48.1" y="48.1" width="3.5" height="3.5"/><path d="M23,44.7V41.1H19.3V33.8H23V30.1H19.3V22.8H23V19.2H37.5v3.6h3.7v7.3H37.5v3.7h7.3v7.3H41.2v3.6Zm0-3.6H37.5V37.4H30.3V33.8H23Zm7.3-11h7.2V22.8H26.6v3.7h3.7Z"/><path class="cls-4" d="M21,42.8V39.1H17.4V31.8H21V28.2H17.4V20.9H21V17.3H35.6v3.6h3.6v7.3H35.6v3.6h7.3v7.3H39.2v3.7Zm0-3.7H35.6V35.5H28.3V31.8H21Zm7.3-10.9h7.3V20.9H24.7v3.7h3.6Z"/></g></svg>