<svg xmlns="http://www.w3.org/2000/svg" viewBox="0 0 58 58"><defs><style>.cls-1{fill:#937a5f;}.cls-2{fill:#ffd697;}.cls-3{fill:#170000;}.cls-4{fill:#e05f19;}</style></defs><title>кнопки</title><g id="Слой_7" data-name="Слой 7"><rect width="58" height="58"/></g><g id="Слой_8" data-name="Слой 8"><rect class="cls-1" x="5" y="4.9" width="50" height="50"/></g><g id="Слой_1" data-name="Слой 1"><rect class="cls-2" x="5" y="4.9" width="50" height="50"/><rect class="cls-3" x="8.4" y="8.3" width="3.5" height="3.5"/><rect class="cls-3" x="48.1" y="8.3" width="3.5" height="3.5"/><rect class="cls-3" x="8.4" y="48" width="3.5" height="3.5"/><rect class="cls-3" x="48.1" y="48" width="3.5" height="3.5"/><path d="M23,44.6V41H33.9V37.3h3.6V33.7H23V30H19.3V22.7H23V19.1H41.2v3.6h3.6V37.3H41.2V41H37.5v3.6ZM26.6,30H37.5V22.7H26.6Z"/><path class="cls-4" d="M21,42.7V39H32V35.4h3.6V31.7H21V28.1H17.4V20.8H21V17.2H39.2v3.6h3.7V35.4H39.2V39H35.6v3.7Zm3.7-14.6H35.6V20.8H24.7Z"/></g></svg>