<svg xmlns="http://www.w3.org/2000/svg" viewBox="0 0 58 58"><defs><style>.cls-1{fill:#937a5f;}.cls-2{fill:#ffd697;}.cls-3{fill:#170000;}.cls-4{fill:#e05f19;}</style></defs><title>кнопки</title><g id="Слой_7" data-name="Слой 7"><rect width="58" height="58"/></g><g id="Слой_8" data-name="Слой 8"><rect class="cls-1" x="5" y="4.9" width="50" height="50"/></g><g id="Слой_1" data-name="Слой 1"><rect class="cls-2" x="3" y="3" width="50" height="50"/><rect class="cls-3" x="6.4" y="6.4" width="3.5" height="3.5"/><rect class="cls-3" x="46.1" y="6.4" width="3.5" height="3.5"/><rect class="cls-3" x="6.4" y="46.1" width="3.5" height="3.5"/><rect class="cls-3" x="46.1" y="46.1" width="3.5" height="3.5"/><path d="M21,42.7V39H31.9V35.4h3.6V31.7H21V28.1H17.3V20.8H21V17.2H39.2v3.6h3.6V35.4H39.2V39H35.5v3.7Zm3.6-14.6H35.5V20.8H24.6Z"/><path class="cls-4" d="M19,40.7V37.1H29.9V33.4h3.7V29.8H19V26.2H15.4V18.9H19V15.2H37.2v3.7h3.7V33.4H37.2v3.7H33.6v3.6Zm3.7-14.5H33.6V18.9H22.7Z"/></g></svg>