<svg xmlns="http://www.w3.org/2000/svg" viewBox="0 0 58 58"><defs><style>.cls-1{fill:#937a5f;}.cls-2{fill:#ffd697;}.cls-3{fill:#170000;}.cls-4{fill:#e05f19;}</style></defs><title>кнопки</title><g id="Слой_7" data-name="Слой 7"><rect width="58" height="58"/></g><g id="Слой_8" data-name="Слой 8"><rect class="cls-1" x="5" y="5.1" width="50" height="50"/></g><g id="Слой_1" data-name="Слой 1"><rect class="cls-2" x="3" y="3" width="50" height="50"/><rect class="cls-3" x="6.4" y="6.4" width="3.5" height="3.5"/><rect class="cls-3" x="46.1" y="6.4" width="3.5" height="3.5"/><rect class="cls-3" x="6.4" y="46.1" width="3.5" height="3.5"/><rect class="cls-3" x="46.1" y="46.1" width="3.5" height="3.5"/><path d="M15.6,35.6V33.3H13.3V26.6h2.3V24.3H29.1v2.3H17.8v6.7H29.1v2.3Z"/><path d="M33.6,35.6V33.3H31.3V26.6h2.3V24.3H44.8v2.3h2.3v4.5H35.8v2.2h9v2.3Zm2.2-6.8h6.8V26.6H35.8Z"/><path class="cls-4" d="M13.6,33.6V31.4H11.4V24.6h2.2V22.4H27.1v2.2H15.9v6.8H27.1v2.2Z"/><path class="cls-4" d="M31.6,33.6V31.4H29.4V24.6h2.2V22.4H42.9v2.2h2.2v4.5H33.9v2.3h9v2.2Zm2.3-6.7h6.7V24.6H33.9Z"/></g></svg>