<svg xmlns="http://www.w3.org/2000/svg" viewBox="0 0 58 58"><defs><style>.cls-1{fill:#937a5f;}.cls-2{fill:#ffd697;}.cls-3{fill:#170000;}.cls-4{fill:#e05f19;}</style></defs><title>кнопки</title><g id="Слой_7" data-name="Слой 7"><rect width="58" height="58"/></g><g id="Слой_8" data-name="Слой 8"><rect class="cls-1" x="5" y="5.1" width="50" height="50"/></g><g id="Слой_1" data-name="Слой 1"><rect class="cls-2" x="5" y="5.1" width="50" height="50"/><rect class="cls-3" x="8.4" y="8.5" width="3.5" height="3.5"/><rect class="cls-3" x="48.1" y="8.5" width="3.5" height="3.5"/><rect class="cls-3" x="8.4" y="48.1" width="3.5" height="3.5"/><rect class="cls-3" x="48.1" y="48.1" width="3.5" height="3.5"/><path d="M17.6,37.6V35.4H15.3V28.6h2.3V26.4H31.1v2.2H19.8v6.8H31.1v2.2Z"/><path d="M35.6,37.6V35.4H33.3V28.6h2.3V26.4H46.8v2.2h2.3v4.5H37.8v2.3h9v2.2Zm2.2-6.7h6.8V28.6H37.8Z"/><path class="cls-4" d="M15.6,35.7V33.4H13.4V26.7h2.2V24.4H29.1v2.3H17.9v6.7H29.1v2.3Z"/><path class="cls-4" d="M33.6,35.7V33.4H31.4V26.7h2.2V24.4H44.9v2.3h2.2v4.5H35.9v2.2h9v2.3Zm2.3-6.8h6.7V26.7H35.9Z"/></g></svg>