<svg xmlns="http://www.w3.org/2000/svg" viewBox="0 0 58 58"><defs><style>.cls-1{fill:#937a5f;}.cls-2{fill:#ffd697;}.cls-3{fill:#170000;}.cls-4{fill:#e05f19;}</style></defs><title>кнопки</title><g id="Слой_7" data-name="Слой 7"><rect width="58" height="58"/></g><g id="Слой_8" data-name="Слой 8"><rect class="cls-1" x="5" y="4.9" width="50" height="50"/></g><g id="Слой_1" data-name="Слой 1"><rect class="cls-2" x="5" y="4.9" width="50" height="50"/><rect class="cls-3" x="8.4" y="8.3" width="3.5" height="3.5"/><rect class="cls-3" x="48.1" y="8.3" width="3.5" height="3.5"/><rect class="cls-3" x="8.4" y="48" width="3.5" height="3.5"/><rect class="cls-3" x="48.1" y="48" width="3.5" height="3.5"/><path d="M23,41V37.3h3.6V33.7H19.3V30h7.3V26.4H23V22.7h7.3v3.7h3.6V22.7h7.3v3.7H37.5V30h7.3v3.7H37.5v3.6h3.7V41H33.9V37.3H30.3V41Z"/><path class="cls-4" d="M21,39V35.4h3.7V31.7H17.4V28.1h7.3V24.4H21V20.8h7.3v3.6H32V20.8h7.2v3.6H35.6v3.7h7.3v3.6H35.6v3.7h3.6V39H32V35.4H28.3V39Z"/></g></svg>