<svg xmlns="http://www.w3.org/2000/svg" viewBox="0 0 58 58"><defs><style>.cls-1{fill:#937a5f;}.cls-2{fill:#ffd697;}.cls-3{fill:#170000;}.cls-4{fill:#e05f19;}</style></defs><title>кнопки</title><g id="Слой_7" data-name="Слой 7"><rect width="58" height="58"/></g><g id="Слой_8" data-name="Слой 8"><rect class="cls-1" x="5" y="4.9" width="50" height="50"/></g><g id="Слой_1" data-name="Слой 1"><rect class="cls-2" x="3" y="3" width="50" height="50"/><rect class="cls-3" x="6.4" y="6.4" width="3.5" height="3.5"/><rect class="cls-3" x="46.1" y="6.4" width="3.5" height="3.5"/><rect class="cls-3" x="6.4" y="46.1" width="3.5" height="3.5"/><rect class="cls-3" x="46.1" y="46.1" width="3.5" height="3.5"/><path d="M21,39V35.4h3.6V31.7H17.3V28.1h7.3V24.5H21V20.8h7.2v3.7h3.7V20.8h7.3v3.7H35.5v3.6h7.3v3.6H35.5v3.7h3.7V39H31.9V35.4H28.2V39Z"/><path class="cls-4" d="M19,37.1V33.4h3.7V29.8H15.4V26.2h7.3V22.5H19V18.9h7.3v3.6h3.6V18.9h7.3v3.6H33.6v3.7h7.3v3.6H33.6v3.6h3.6v3.7H29.9V33.4H26.3v3.7Z"/></g></svg>