<svg xmlns="http://www.w3.org/2000/svg" viewBox="0 0 58 58"><defs><style>.cls-1{fill:#937a5f;}.cls-2{fill:#ffd697;}.cls-3{fill:#170000;}.cls-4{fill:#e05f19;}</style></defs><title>кнопки</title><g id="Слой_7" data-name="Слой 7"><rect width="58" height="58"/></g><g id="Слой_8" data-name="Слой 8"><rect class="cls-1" x="5" y="4.9" width="50" height="50"/></g><g id="Слой_1" data-name="Слой 1"><rect class="cls-2" x="3" y="3" width="50" height="50"/><rect class="cls-3" x="6.4" y="6.4" width="3.5" height="3.5"/><rect class="cls-3" x="46.1" y="6.4" width="3.5" height="3.5"/><rect class="cls-3" x="6.4" y="46.1" width="3.5" height="3.5"/><rect class="cls-3" x="46.1" y="46.1" width="3.5" height="3.5"/><path d="M24.6,28.1H17.3V20.8H21v3.7h3.6ZM17.3,39H21v3.7H17.3Zm7.3-18.2H21V17.2h7.2v7.3H24.6ZM21,35.4h3.6V39H21Zm3.6-3.7h3.6v3.7H24.6Zm3.6-3.6h3.7v3.6H28.2Zm3.7-3.6h3.6v3.6H31.9ZM35.5,39h3.7v3.7H31.9V35.4h3.6Zm0-18.2h3.7v3.7H35.5Zm0,10.9h7.3V39H39.2V35.4H35.5Zm7.3-14.5v3.6H39.2V17.2Z"/><path class="cls-4" d="M22.7,26.2H15.4V18.9H19v3.6h3.7ZM15.4,37.1H19v3.6H15.4Zm7.3-18.2H19V15.2h7.3v7.3H22.7ZM19,33.4h3.7v3.7H19Zm3.7-3.6h3.6v3.6H22.7Zm3.6-3.6h3.6v3.6H26.3Zm3.6-3.7h3.7v3.7H29.9Zm3.7,14.6h3.6v3.6H29.9V33.4h3.7Zm0-18.2h3.6v3.6H33.6Zm0,10.9h7.3v7.3H37.2V33.4H33.6Zm7.3-14.6v3.7H37.2V15.2Z"/></g></svg>