<svg xmlns="http://www.w3.org/2000/svg" viewBox="0 0 58 58"><defs><style>.cls-1{fill:#937a5f;}.cls-2{fill:#ffd697;}.cls-3{fill:#170000;}.cls-4{fill:#e05f19;}</style></defs><title>кнопки</title><g id="Слой_7" data-name="Слой 7"><rect width="58" height="58"/></g><g id="Слой_8" data-name="Слой 8"><rect class="cls-1" x="5" y="5" width="50" height="50"/></g><g id="Слой_1" data-name="Слой 1"><rect class="cls-2" x="5" y="4.8" width="50" height="50"/><rect class="cls-3" x="8.4" y="8.2" width="3.5" height="3.5"/><rect class="cls-3" x="48" y="8.2" width="3.5" height="3.5"/><rect class="cls-3" x="8.4" y="47.9" width="3.5" height="3.5"/><rect class="cls-3" x="48" y="47.9" width="3.5" height="3.5"/><path d="M26.6,29.9H19.3V22.6h3.6v3.7h3.7ZM19.3,40.8h3.6v3.7H19.3Zm7.3-18.2H22.9V19h7.3v7.3H26.6ZM22.9,37.2h3.7v3.6H22.9Zm3.7-3.6h3.6v3.6H26.6Zm3.6-3.7h3.6v3.7H30.2Zm3.6-3.6h3.7v3.6H33.8Zm3.7,14.5h3.6v3.7H33.8V37.2h3.7Zm0-18.2h3.6v3.7H37.5Zm0,11h7.3v7.2H41.1V37.2H37.5ZM44.8,19v3.6H41.1V19Z"/><path class="cls-4" d="M24.6,28H17.3V20.7H21v3.6h3.6ZM17.3,38.9H21v3.6H17.3Zm7.3-18.2H21V17h7.3v7.3H24.6ZM21,35.3h3.6v3.6H21Zm3.6-3.7h3.7v3.7H24.6ZM28.3,28h3.6v3.6H28.3Zm3.6-3.7h3.6V28H31.9Zm3.6,14.6h3.7v3.6H31.9V35.3h3.6Zm0-18.2h3.7v3.6H35.5Zm0,10.9h7.3v7.3H39.2V35.3H35.5ZM42.8,17v3.7H39.2V17Z"/></g></svg>