<svg id="Слой_1" data-name="Слой 1" xmlns="http://www.w3.org/2000/svg" viewBox="0 0 251.5 54.7"><defs><style>.cls-1{fill:#937a5f;}.cls-2{fill:#ffd697;}.cls-3{fill:#170000;}.cls-4{fill:#0099d1;}.cls-5{fill:#fdc40c;}.cls-6{fill:#f52f1e;}.cls-7{fill:#50c14a;}</style></defs><title>logo</title><rect class="cls-1" x="105.5" y="35.2" width="146" height="19.47"/><rect class="cls-2" x="103.5" y="33.2" width="146" height="19.47"/><path d="M119.8,48.5V47h-1.5V45.5h-1.5V41h1.5V39.5h1.5V38h6v1.5h1.5V41h-3V39.5h-3V41h-1.5v4.5h1.5V47h3V45.5h3V47h-1.5v1.5Z" transform="translate(0.1 -0.3)"/><path d="M128.9,48.5V41h1.5V39.5h1.5V38h4.5v1.5h1.5V41h1.5v7.5h-3v-3h-4.5v3Zm3-4.5h4.5V41h-1.5V39.5h-1.5V41h-1.5Z" transform="translate(0.1 -0.3)"/><path d="M142.5,48.5V38h3v9h6v1.5Z" transform="translate(0.1 -0.3)"/><path d="M156.1,48.5V47h-1.6V45.5H153V41h1.5V39.5h1.6V38h6v1.5h1.5V41h-3V39.5h-3V41h-1.5v4.5h1.5V47h3V45.5h3V47h-1.5v1.5Z" transform="translate(0.1 -0.3)"/><path d="M166.6,48.5V47h-1.5V38h3v9h4.6V38h3v9h-1.5v1.5Z" transform="translate(0.1 -0.3)"/><path d="M178.7,48.5V38h3v9h6.1v1.5Z" transform="translate(0.1 -0.3)"/><path d="M189.3,48.5V41h1.5V39.5h1.5V38h4.5v1.5h1.6V41h1.5v7.5h-3.1v-3h-4.5v3Zm3-4.5h4.5V41h-1.5V39.5h-1.5V41h-1.5Z" transform="translate(0.1 -0.3)"/><path d="M205.9,48.5v-9h-3V38H212v1.5h-3.1v9Z" transform="translate(0.1 -0.3)"/><path d="M215,48.5V47h-1.5V39.5H215V38h7.5v1.5H224V47h-1.5v1.5Zm1.5-1.5H221V39.5h-4.5Z" transform="translate(0.1 -0.3)"/><path d="M225.6,48.5V38h9v1.5h1.5V44h-3v1.5h1.5V47h1.5v1.5h-4.5V47h-1.5V45.5h-1.5v3Zm3-4.5h3V42.5h1.5v-3h-4.5Z" transform="translate(0.1 -0.3)"/><rect class="cls-3" x="242" y="41.3" width="3.4" height="3.4"/><rect class="cls-3" x="108.5" y="41.3" width="3.4" height="3.4"/><path class="cls-4" d="M23,14.2l-5.4-3.5-1.3,1.7,9.6,7.1-4.7,8.7H9.8L1.9,21.9l3.4-5.8L12.2,20l1-1.6-10-6L12.7,1.8h8.5l6.4,6.7Z" transform="translate(0.1 -0.3)"/><path d="M21.2,1.8l6.4,6.7L23,14.2l-5.4-3.5-1.3,1.7,9.6,7.1-4.7,8.7H9.8L1.9,21.9l3.4-5.8L12.2,20l1-1.6-10-6L12.7,1.8h8.5M21.9.3H12l-.4.5L2.1,11.4.9,12.8l1.5.9,2,1.2-.3.5L.6,21.1l-.7,1.1v3.7L8,31.4H23.8l.9-1.8,4.1-9.2-1-1.4-1.1-.7-3.2-2.4.6-.8,4.6-5.7.8-1-.8-.9L22.3.8,21.9.3Z" transform="translate(0.1 -0.3)"/><path class="cls-5" d="M38.9,2l-.6,18,4.5-3.3L42.3,2.5H53.2l-.9,18.7L46,28.4H32.6L27.4,22V2Z" transform="translate(0.1 -0.3)"/><path d="M38.9,2l-.6,18,4.5-3.3L42.3,2.5H53.2l-.9,18.7L46,28.4H32.6L27.4,22V2H38.9M40.4.6H25.9V25.3l5.6,6.2.4.6H46.6l.5-.5,6.3-7.2.4-2.6v-.5l.8-18.8V1h-14V2.5L41.3,16l-1.4,1,.4-14.9V.6Z" transform="translate(0.1 -0.3)"/><path class="cls-6" d="M75.5,6.3,76,16.8l-6.3,6.1-7.9.5v5H53.6L54.9,2H69.2ZM63,14.4l2.4.3,3-3.5-5.1-1.1Z" transform="translate(0.1 -0.3)"/><path d="M69.2,2l6.3,4.3L76,16.8l-6.3,6.1-7.9.5v5H53.6L54.9,2H69.2M65.4,14.7l3-3.5-5.1-1.1L63,14.4l2.4.3M69.7.5H53.5V1.9L50.7,30.7v1.6H63.4V27.2l6.4-.4h.6l.4-.3,6.3-6.2.4-2.8v-.7L77,6.2V5.5l-.6-.4L70.1.8,69.7.5ZM64.6,13.1V11.9l.9.2-.8,1Z" transform="translate(0.1 -0.3)"/><path class="cls-7" d="M95.4,1.8,94,9.2l-8.6,1.3v1.8l7.6.5-.4,5.7-6.7.6.6,1.9h8.2l3,7.1H78l-1.9-17L78,1.8Z" transform="translate(0.1 -0.3)"/><path d="M95.4,1.8,94,9.2l-8.6,1.3v1.8l7.6.5-.4,5.7-6.7.6.6,1.9h8.2l3,7.1H78l-1.9-17L78,1.8H95.4M97.2.3H76.8l-.2,1.2-1.9,9.4v.5L75,30.8l.2,1.3h25.7l-.8-2.1-3.3-9.5-.4-.9H93.9v-1l.4-5.7V11.5H93l-2.5-.2,3.7-.6h1l.2-1.1,1.5-7.3L97.2.3Z" transform="translate(0.1 -0.3)"/><path class="cls-5" d="M117.7,6.8l.7,8.3-3.7,4.1,6.5,5.8-7.7,3.3-8-6.9,1.2,6.9H98.5L96.4,3.2,111.2,2Zm-12.4,7.6,2.1.3,2.2-3.1-4.1-2.2Z" transform="translate(0.1 -0.3)"/><path d="M111.2,2l6.5,4.8.7,8.3-3.7,4.1,6.5,5.8-7.7,3.3-8-6.9,1.2,6.9H98.5L96.4,3.2,111.2,2m-3.8,12.7,2.2-3.1-4.1-2.2-.2,5,2.1.3M111.6.5h-.5L96.3,1.7H94.9V3.3l2.6,28.3V33h1.4l9.3-.4h1.8l-.3-1.7-.5-2.8,4.9,4.2.7.6.9-.4,7.7-3.3,2.1-.9L124,26.7l-7.2-7.6,2.7-3,.4-.5V15l-.6-8.3V6l-.6-.4L112,.8l-.4-.3ZM106.8,13V11.8l.6.3-.6.9Z" transform="translate(0.1 -0.3)"/><path class="cls-6" d="M133.1,2.1h7.5l2.5,7.1,4.4-7.1,6.7-.2,7.2,25.5-9.4.8-1.9-6.4L148,15.5l-6.6,5.8-5-6.6-6,12.7-9.9-1.8Z" transform="translate(0.1 -0.3)"/><path d="M154.2,1.9l7.2,25.5-9.4.8-1.9-6.4L148,15.5l-6.6,5.8-5-6.6-6,12.7-9.9-1.8L133.1,2.1h7.5l2.5,7.1,4.4-7.1,6.7-.2M155.3.4h-1.2l-6.6.2h-.8l-.4.7-2.8,4.5L142,1.6l-.3-1h-9.4l-.5.8L118.3,26.8l-1,1.7,2,.4,10,1.9,1.8.4.7-1.2L137,19.8l2.8,3.2,1.1,1.4,2-1.7,4.1-3.4,1.1,3.7,1.7,6.4.3,1.2h1.2l11.4-.3h1.8l-.5-1.8L155.6,1.5,155.3.4Z" transform="translate(0.1 -0.3)"/><path class="cls-7" d="M188.6,26.4l-10.7,1.7-.8-6.3-8.6-.2-2,6.7-10.3-1.8L170.3,2.7l7.1-.8ZM170.7,14.9h5.4l-1.2-3.6h-2.8Z" transform="translate(0.1 -0.3)"/><path d="M177.4,1.9l11.2,24.5-10.7,1.7-.8-6.3-8.6-.2-2,6.7-10.3-1.8L170.3,2.7l7.1-.8M176.1,15l-1.2-3.6h-2.8l-1.4,3.6h5.4M178.3.4h-1l-7.1.7h-.8l-.3.6L153.3,27.4l-1.1,1.9,2.1.4L167,31.6l1.3.2.4-1.3,2-6.7h3.6l1,6.5.2,1.5,1.5-.2,12.6-2.3,2-.3L190,25.8,178.8,1.3l-.5-.9Zm-5.4,13.1.2-.7h.7l.2.7Z" transform="translate(0.1 -0.3)"/><path class="cls-5" d="M208.3,6.8l.6,8.3-3.7,4.1,6.6,5.8-7.7,3.3L196,21.4l1.2,6.9h-8.1L187,3.2,201.7,2Zm-12.5,7.6,2.2.3,2.1-3.1L196,9.4Z" transform="translate(0.1 -0.3)"/><path d="M201.7,2l6.6,4.8.6,8.3-3.7,4.1,6.6,5.8-7.7,3.3L196,21.4l1.2,6.9h-8.1L187,3.2,201.7,2M198,14.7l2.1-3.1L196,9.4l-.2,5,2.2.3M202.2.5h-.6L186.9,1.7h-1.5V3.3L187.4,30v1.4h1.4l9.1-.2h1.7l-.3-1.8-.5-2.8,3.9,4,.7.6.9-.4,9.3-3.5,2.2-.9-1.8-1.6-6.8-5.7,2.7-3,.4-.5V15l-.6-8.3V6l-.5-.4L202.6.8l-.4-.3ZM197.3,13V11.8l.6.3-.7.9Z" transform="translate(0.1 -0.3)"/><path class="cls-4" d="M222.2,2.1l-1.7,26.2-8.4-.3-.9-26Z" transform="translate(0.1 -0.3)"/><path d="M211.2,2h11l-1.7,26.2-8.4-.3-.9-26M209.7.5V31.2h12.6V29.8l1.3-27.6V.6H209.7Z" transform="translate(0.1 -0.3)"/><path class="cls-7" d="M249.9,11.9l-2.2,12.6-14,3.7-11.2-9.9,1.7-11.1,8.3-5.3,9.7.3Zm-17.1,3.3,3.1,2.1,3.3-1.2-.2-3.9-4.4-1Z" transform="translate(0.1 -0.3)"/><path d="M232.5,1.9l9.7.3,7.7,9.7-2.2,12.6-14,3.7-11.2-9.9,1.7-11.1,8.3-5.3m3.4,15.4,3.3-1.2-.2-3.9-4.4-1-1.8,4,3.1,2.1M232.1.4l-.4.3L223.4,6l-.6.3V7L220,20.6v.8l.6.5,11.2,9.9.6.5.7-.2,15.8-4.3.9-.2.2-.9,1.4-14.6.2-.6-.5-.6-7.7-9.6-.4-.5h-.7L232.6.4Zm2.5,14.3.8-1.8,2.2.5v1.7l-1.6.6-1.5-1Z" transform="translate(0.1 -0.3)"/></svg>